<mxfile host="app.diagrams.net" agent="Mozilla/5.0 (Windows NT 10.0; Win64; x64) AppleWebKit/537.36 (KHTML, like Gecko) Chrome/131.0.0.0 Safari/537.36" version="25.0.3">
  <diagram id="C5RBs43oDa-KdzZeNtuy" name="Page-1">
    <mxGraphModel dx="2150" dy="2070" grid="0" gridSize="10" guides="1" tooltips="1" connect="1" arrows="1" fold="1" page="0" pageScale="1" pageWidth="827" pageHeight="1169" background="#ffffff" math="0" shadow="0">
      <root>
        <mxCell id="WIyWlLk6GJQsqaUBKTNV-0" />
        <mxCell id="WIyWlLk6GJQsqaUBKTNV-1" parent="WIyWlLk6GJQsqaUBKTNV-0" />
        <mxCell id="zkfFHV4jXpPFQw0GAbJ--0" value="User" style="swimlane;fontStyle=2;align=center;verticalAlign=top;childLayout=stackLayout;horizontal=1;startSize=26;horizontalStack=0;resizeParent=1;resizeLast=0;collapsible=1;marginBottom=0;rounded=0;shadow=0;strokeWidth=1;labelBackgroundColor=none;fillColor=#F2CC8F;strokeColor=#E07A5F;fontColor=#393C56;" parent="WIyWlLk6GJQsqaUBKTNV-1" vertex="1">
          <mxGeometry x="170" y="-690" width="160" height="360" as="geometry">
            <mxRectangle x="240" y="-690" width="160" height="26" as="alternateBounds" />
          </mxGeometry>
        </mxCell>
        <mxCell id="zkfFHV4jXpPFQw0GAbJ--1" value="- username : string" style="text;align=left;verticalAlign=top;spacingLeft=4;spacingRight=4;overflow=hidden;rotatable=0;points=[[0,0.5],[1,0.5]];portConstraint=eastwest;labelBackgroundColor=none;fontColor=#393C56;" parent="zkfFHV4jXpPFQw0GAbJ--0" vertex="1">
          <mxGeometry y="26" width="160" height="26" as="geometry" />
        </mxCell>
        <mxCell id="zkfFHV4jXpPFQw0GAbJ--2" value="- email : string" style="text;align=left;verticalAlign=top;spacingLeft=4;spacingRight=4;overflow=hidden;rotatable=0;points=[[0,0.5],[1,0.5]];portConstraint=eastwest;rounded=0;shadow=0;html=0;labelBackgroundColor=none;fontColor=#393C56;" parent="zkfFHV4jXpPFQw0GAbJ--0" vertex="1">
          <mxGeometry y="52" width="160" height="26" as="geometry" />
        </mxCell>
        <mxCell id="zkfFHV4jXpPFQw0GAbJ--3" value="- password : string" style="text;align=left;verticalAlign=top;spacingLeft=4;spacingRight=4;overflow=hidden;rotatable=0;points=[[0,0.5],[1,0.5]];portConstraint=eastwest;rounded=0;shadow=0;html=0;labelBackgroundColor=none;fontColor=#393C56;" parent="zkfFHV4jXpPFQw0GAbJ--0" vertex="1">
          <mxGeometry y="78" width="160" height="26" as="geometry" />
        </mxCell>
        <mxCell id="-4fTEAHiSSVaOjTVvM5S-9" value="- faculty_id : integer" style="text;align=left;verticalAlign=top;spacingLeft=4;spacingRight=4;overflow=hidden;rotatable=0;points=[[0,0.5],[1,0.5]];portConstraint=eastwest;rounded=0;shadow=0;html=0;labelBackgroundColor=none;fontColor=#393C56;" parent="zkfFHV4jXpPFQw0GAbJ--0" vertex="1">
          <mxGeometry y="104" width="160" height="26" as="geometry" />
        </mxCell>
        <mxCell id="BodTTib29oXBfHVtGbxE-240" value="" style="line;strokeWidth=1;rotatable=0;dashed=0;labelPosition=right;align=left;verticalAlign=middle;spacingTop=0;spacingLeft=6;points=[];portConstraint=eastwest;labelBackgroundColor=none;fillColor=#F2CC8F;strokeColor=#E07A5F;fontColor=#393C56;" parent="zkfFHV4jXpPFQw0GAbJ--0" vertex="1">
          <mxGeometry y="130" width="160" height="10" as="geometry" />
        </mxCell>
        <mxCell id="BodTTib29oXBfHVtGbxE-3" value="+ faculty()" style="text;align=left;verticalAlign=top;spacingLeft=4;spacingRight=4;overflow=hidden;rotatable=0;points=[[0,0.5],[1,0.5]];portConstraint=eastwest;rounded=0;shadow=0;html=0;labelBackgroundColor=none;fontColor=#393C56;" parent="zkfFHV4jXpPFQw0GAbJ--0" vertex="1">
          <mxGeometry y="140" width="160" height="26" as="geometry" />
        </mxCell>
        <mxCell id="BodTTib29oXBfHVtGbxE-4" value="+ posts()" style="text;align=left;verticalAlign=top;spacingLeft=4;spacingRight=4;overflow=hidden;rotatable=0;points=[[0,0.5],[1,0.5]];portConstraint=eastwest;rounded=0;shadow=0;html=0;labelBackgroundColor=none;fontColor=#393C56;" parent="zkfFHV4jXpPFQw0GAbJ--0" vertex="1">
          <mxGeometry y="166" width="160" height="26" as="geometry" />
        </mxCell>
        <mxCell id="BodTTib29oXBfHVtGbxE-5" value="+ comments()" style="text;align=left;verticalAlign=top;spacingLeft=4;spacingRight=4;overflow=hidden;rotatable=0;points=[[0,0.5],[1,0.5]];portConstraint=eastwest;rounded=0;shadow=0;html=0;labelBackgroundColor=none;fontColor=#393C56;" parent="zkfFHV4jXpPFQw0GAbJ--0" vertex="1">
          <mxGeometry y="192" width="160" height="26" as="geometry" />
        </mxCell>
        <mxCell id="BodTTib29oXBfHVtGbxE-6" value="+ histories()" style="text;align=left;verticalAlign=top;spacingLeft=4;spacingRight=4;overflow=hidden;rotatable=0;points=[[0,0.5],[1,0.5]];portConstraint=eastwest;rounded=0;shadow=0;html=0;labelBackgroundColor=none;fontColor=#393C56;" parent="zkfFHV4jXpPFQw0GAbJ--0" vertex="1">
          <mxGeometry y="218" width="160" height="26" as="geometry" />
        </mxCell>
        <mxCell id="BodTTib29oXBfHVtGbxE-18" value="+ bookmarks()" style="text;align=left;verticalAlign=top;spacingLeft=4;spacingRight=4;overflow=hidden;rotatable=0;points=[[0,0.5],[1,0.5]];portConstraint=eastwest;rounded=0;shadow=0;html=0;labelBackgroundColor=none;fontColor=#393C56;" parent="zkfFHV4jXpPFQw0GAbJ--0" vertex="1">
          <mxGeometry y="244" width="160" height="26" as="geometry" />
        </mxCell>
        <mxCell id="BodTTib29oXBfHVtGbxE-19" value="+ reports()" style="text;align=left;verticalAlign=top;spacingLeft=4;spacingRight=4;overflow=hidden;rotatable=0;points=[[0,0.5],[1,0.5]];portConstraint=eastwest;rounded=0;shadow=0;html=0;labelBackgroundColor=none;fontColor=#393C56;" parent="zkfFHV4jXpPFQw0GAbJ--0" vertex="1">
          <mxGeometry y="270" width="160" height="26" as="geometry" />
        </mxCell>
        <mxCell id="BodTTib29oXBfHVtGbxE-20" value="+ userProfile()" style="text;align=left;verticalAlign=top;spacingLeft=4;spacingRight=4;overflow=hidden;rotatable=0;points=[[0,0.5],[1,0.5]];portConstraint=eastwest;rounded=0;shadow=0;html=0;labelBackgroundColor=none;fontColor=#393C56;" parent="zkfFHV4jXpPFQw0GAbJ--0" vertex="1">
          <mxGeometry y="296" width="160" height="26" as="geometry" />
        </mxCell>
        <mxCell id="BodTTib29oXBfHVtGbxE-295" value="+ likes()" style="text;align=left;verticalAlign=top;spacingLeft=4;spacingRight=4;overflow=hidden;rotatable=0;points=[[0,0.5],[1,0.5]];portConstraint=eastwest;rounded=0;shadow=0;html=0;labelBackgroundColor=none;fontColor=#393C56;" parent="zkfFHV4jXpPFQw0GAbJ--0" vertex="1">
          <mxGeometry y="322" width="160" height="26" as="geometry" />
        </mxCell>
        <mxCell id="BodTTib29oXBfHVtGbxE-28" value="Post" style="swimlane;fontStyle=2;align=center;verticalAlign=top;childLayout=stackLayout;horizontal=1;startSize=26;horizontalStack=0;resizeParent=1;resizeLast=0;collapsible=1;marginBottom=0;rounded=0;shadow=0;strokeWidth=1;labelBackgroundColor=none;fillColor=#F2CC8F;strokeColor=#E07A5F;fontColor=#393C56;" parent="WIyWlLk6GJQsqaUBKTNV-1" vertex="1">
          <mxGeometry x="630" y="-810" width="160" height="650" as="geometry">
            <mxRectangle x="414" y="-326" width="160" height="26" as="alternateBounds" />
          </mxGeometry>
        </mxCell>
        <mxCell id="BodTTib29oXBfHVtGbxE-29" value="- title : string" style="text;align=left;verticalAlign=top;spacingLeft=4;spacingRight=4;overflow=hidden;rotatable=0;points=[[0,0.5],[1,0.5]];portConstraint=eastwest;labelBackgroundColor=none;fontColor=#393C56;" parent="BodTTib29oXBfHVtGbxE-28" vertex="1">
          <mxGeometry y="26" width="160" height="26" as="geometry" />
        </mxCell>
        <mxCell id="BodTTib29oXBfHVtGbxE-30" value="- description : text" style="text;align=left;verticalAlign=top;spacingLeft=4;spacingRight=4;overflow=hidden;rotatable=0;points=[[0,0.5],[1,0.5]];portConstraint=eastwest;rounded=0;shadow=0;html=0;labelBackgroundColor=none;fontColor=#393C56;" parent="BodTTib29oXBfHVtGbxE-28" vertex="1">
          <mxGeometry y="52" width="160" height="26" as="geometry" />
        </mxCell>
        <mxCell id="BodTTib29oXBfHVtGbxE-31" value="- category_id : integer" style="text;align=left;verticalAlign=top;spacingLeft=4;spacingRight=4;overflow=hidden;rotatable=0;points=[[0,0.5],[1,0.5]];portConstraint=eastwest;rounded=0;shadow=0;html=0;labelBackgroundColor=none;fontColor=#393C56;" parent="BodTTib29oXBfHVtGbxE-28" vertex="1">
          <mxGeometry y="78" width="160" height="26" as="geometry" />
        </mxCell>
        <mxCell id="BodTTib29oXBfHVtGbxE-32" value="- paper_type_id : integer" style="text;align=left;verticalAlign=top;spacingLeft=4;spacingRight=4;overflow=hidden;rotatable=0;points=[[0,0.5],[1,0.5]];portConstraint=eastwest;rounded=0;shadow=0;html=0;labelBackgroundColor=none;fontColor=#393C56;" parent="BodTTib29oXBfHVtGbxE-28" vertex="1">
          <mxGeometry y="104" width="160" height="26" as="geometry" />
        </mxCell>
        <mxCell id="BodTTib29oXBfHVtGbxE-33" value="- user_id : integer" style="text;align=left;verticalAlign=top;spacingLeft=4;spacingRight=4;overflow=hidden;rotatable=0;points=[[0,0.5],[1,0.5]];portConstraint=eastwest;rounded=0;shadow=0;html=0;labelBackgroundColor=none;fontColor=#393C56;" parent="BodTTib29oXBfHVtGbxE-28" vertex="1">
          <mxGeometry y="130" width="160" height="26" as="geometry" />
        </mxCell>
        <mxCell id="BodTTib29oXBfHVtGbxE-44" value="- slug : string" style="text;strokeColor=none;fillColor=none;spacingLeft=4;spacingRight=4;overflow=hidden;rotatable=0;points=[[0,0.5],[1,0.5]];portConstraint=eastwest;fontSize=12;whiteSpace=wrap;html=1;labelBackgroundColor=none;fontColor=#393C56;" parent="BodTTib29oXBfHVtGbxE-28" vertex="1">
          <mxGeometry y="156" width="160" height="30" as="geometry" />
        </mxCell>
        <mxCell id="BodTTib29oXBfHVtGbxE-59" value="- status : enum" style="text;strokeColor=none;fillColor=none;spacingLeft=4;spacingRight=4;overflow=hidden;rotatable=0;points=[[0,0.5],[1,0.5]];portConstraint=eastwest;fontSize=12;whiteSpace=wrap;html=1;labelBackgroundColor=none;fontColor=#393C56;" parent="BodTTib29oXBfHVtGbxE-28" vertex="1">
          <mxGeometry y="186" width="160" height="30" as="geometry" />
        </mxCell>
        <mxCell id="BodTTib29oXBfHVtGbxE-60" value="- approve_by : string" style="text;strokeColor=none;fillColor=none;spacingLeft=4;spacingRight=4;overflow=hidden;rotatable=0;points=[[0,0.5],[1,0.5]];portConstraint=eastwest;fontSize=12;whiteSpace=wrap;html=1;labelBackgroundColor=none;fontColor=#393C56;" parent="BodTTib29oXBfHVtGbxE-28" vertex="1">
          <mxGeometry y="216" width="160" height="30" as="geometry" />
        </mxCell>
        <mxCell id="BodTTib29oXBfHVtGbxE-61" value="- approve_at : datetime" style="text;strokeColor=none;fillColor=none;spacingLeft=4;spacingRight=4;overflow=hidden;rotatable=0;points=[[0,0.5],[1,0.5]];portConstraint=eastwest;fontSize=12;whiteSpace=wrap;html=1;labelBackgroundColor=none;fontColor=#393C56;" parent="BodTTib29oXBfHVtGbxE-28" vertex="1">
          <mxGeometry y="246" width="160" height="30" as="geometry" />
        </mxCell>
        <mxCell id="BodTTib29oXBfHVtGbxE-239" value="" style="line;strokeWidth=1;rotatable=0;dashed=0;labelPosition=right;align=left;verticalAlign=middle;spacingTop=0;spacingLeft=6;points=[];portConstraint=eastwest;labelBackgroundColor=none;fillColor=#F2CC8F;strokeColor=#E07A5F;fontColor=#393C56;" parent="BodTTib29oXBfHVtGbxE-28" vertex="1">
          <mxGeometry y="276" width="160" height="10" as="geometry" />
        </mxCell>
        <mxCell id="BodTTib29oXBfHVtGbxE-241" value="+ user()" style="text;strokeColor=none;fillColor=none;spacingLeft=4;spacingRight=4;overflow=hidden;rotatable=0;points=[[0,0.5],[1,0.5]];portConstraint=eastwest;fontSize=12;whiteSpace=wrap;html=1;labelBackgroundColor=none;fontColor=#393C56;" parent="BodTTib29oXBfHVtGbxE-28" vertex="1">
          <mxGeometry y="286" width="160" height="30" as="geometry" />
        </mxCell>
        <mxCell id="BodTTib29oXBfHVtGbxE-242" value="+ approvedBy()" style="text;strokeColor=none;fillColor=none;spacingLeft=4;spacingRight=4;overflow=hidden;rotatable=0;points=[[0,0.5],[1,0.5]];portConstraint=eastwest;fontSize=12;whiteSpace=wrap;html=1;labelBackgroundColor=none;fontColor=#393C56;" parent="BodTTib29oXBfHVtGbxE-28" vertex="1">
          <mxGeometry y="316" width="160" height="30" as="geometry" />
        </mxCell>
        <mxCell id="BodTTib29oXBfHVtGbxE-243" value="+ category()" style="text;strokeColor=none;fillColor=none;spacingLeft=4;spacingRight=4;overflow=hidden;rotatable=0;points=[[0,0.5],[1,0.5]];portConstraint=eastwest;fontSize=12;whiteSpace=wrap;html=1;labelBackgroundColor=none;fontColor=#393C56;" parent="BodTTib29oXBfHVtGbxE-28" vertex="1">
          <mxGeometry y="346" width="160" height="30" as="geometry" />
        </mxCell>
        <mxCell id="BodTTib29oXBfHVtGbxE-244" value="+ paperType()" style="text;strokeColor=none;fillColor=none;spacingLeft=4;spacingRight=4;overflow=hidden;rotatable=0;points=[[0,0.5],[1,0.5]];portConstraint=eastwest;fontSize=12;whiteSpace=wrap;html=1;labelBackgroundColor=none;fontColor=#393C56;" parent="BodTTib29oXBfHVtGbxE-28" vertex="1">
          <mxGeometry y="376" width="160" height="30" as="geometry" />
        </mxCell>
        <mxCell id="BodTTib29oXBfHVtGbxE-245" value="+ comments()" style="text;strokeColor=none;fillColor=none;spacingLeft=4;spacingRight=4;overflow=hidden;rotatable=0;points=[[0,0.5],[1,0.5]];portConstraint=eastwest;fontSize=12;whiteSpace=wrap;html=1;labelBackgroundColor=none;fontColor=#393C56;" parent="BodTTib29oXBfHVtGbxE-28" vertex="1">
          <mxGeometry y="406" width="160" height="30" as="geometry" />
        </mxCell>
        <mxCell id="BodTTib29oXBfHVtGbxE-246" value="+ histories()" style="text;strokeColor=none;fillColor=none;spacingLeft=4;spacingRight=4;overflow=hidden;rotatable=0;points=[[0,0.5],[1,0.5]];portConstraint=eastwest;fontSize=12;whiteSpace=wrap;html=1;labelBackgroundColor=none;fontColor=#393C56;" parent="BodTTib29oXBfHVtGbxE-28" vertex="1">
          <mxGeometry y="436" width="160" height="30" as="geometry" />
        </mxCell>
        <mxCell id="BodTTib29oXBfHVtGbxE-247" value="+ bookmarks()" style="text;strokeColor=none;fillColor=none;spacingLeft=4;spacingRight=4;overflow=hidden;rotatable=0;points=[[0,0.5],[1,0.5]];portConstraint=eastwest;fontSize=12;whiteSpace=wrap;html=1;labelBackgroundColor=none;fontColor=#393C56;" parent="BodTTib29oXBfHVtGbxE-28" vertex="1">
          <mxGeometry y="466" width="160" height="30" as="geometry" />
        </mxCell>
        <mxCell id="BodTTib29oXBfHVtGbxE-249" value="+ file()" style="text;strokeColor=none;fillColor=none;spacingLeft=4;spacingRight=4;overflow=hidden;rotatable=0;points=[[0,0.5],[1,0.5]];portConstraint=eastwest;fontSize=12;whiteSpace=wrap;html=1;labelBackgroundColor=none;fontColor=#393C56;" parent="BodTTib29oXBfHVtGbxE-28" vertex="1">
          <mxGeometry y="496" width="160" height="30" as="geometry" />
        </mxCell>
        <mxCell id="BodTTib29oXBfHVtGbxE-250" value="+ reports()" style="text;strokeColor=none;fillColor=none;spacingLeft=4;spacingRight=4;overflow=hidden;rotatable=0;points=[[0,0.5],[1,0.5]];portConstraint=eastwest;fontSize=12;whiteSpace=wrap;html=1;labelBackgroundColor=none;fontColor=#393C56;" parent="BodTTib29oXBfHVtGbxE-28" vertex="1">
          <mxGeometry y="526" width="160" height="30" as="geometry" />
        </mxCell>
        <mxCell id="BodTTib29oXBfHVtGbxE-251" value="+ generateSlug()" style="text;strokeColor=none;fillColor=none;spacingLeft=4;spacingRight=4;overflow=hidden;rotatable=0;points=[[0,0.5],[1,0.5]];portConstraint=eastwest;fontSize=12;whiteSpace=wrap;html=1;labelBackgroundColor=none;fontColor=#393C56;" parent="BodTTib29oXBfHVtGbxE-28" vertex="1">
          <mxGeometry y="556" width="160" height="30" as="geometry" />
        </mxCell>
        <mxCell id="BodTTib29oXBfHVtGbxE-252" value="+ setTitleAttribute()" style="text;strokeColor=none;fillColor=none;spacingLeft=4;spacingRight=4;overflow=hidden;rotatable=0;points=[[0,0.5],[1,0.5]];portConstraint=eastwest;fontSize=12;whiteSpace=wrap;html=1;labelBackgroundColor=none;fontColor=#393C56;" parent="BodTTib29oXBfHVtGbxE-28" vertex="1">
          <mxGeometry y="586" width="160" height="30" as="geometry" />
        </mxCell>
        <mxCell id="BodTTib29oXBfHVtGbxE-274" value="+ likes()" style="text;strokeColor=none;fillColor=none;spacingLeft=4;spacingRight=4;overflow=hidden;rotatable=0;points=[[0,0.5],[1,0.5]];portConstraint=eastwest;fontSize=12;whiteSpace=wrap;html=1;labelBackgroundColor=none;fontColor=#393C56;" parent="BodTTib29oXBfHVtGbxE-28" vertex="1">
          <mxGeometry y="616" width="160" height="30" as="geometry" />
        </mxCell>
        <mxCell id="BodTTib29oXBfHVtGbxE-253" value="Category" style="swimlane;fontStyle=0;childLayout=stackLayout;horizontal=1;startSize=30;horizontalStack=0;resizeParent=1;resizeParentMax=0;resizeLast=0;collapsible=1;marginBottom=0;align=center;fontSize=14;labelBackgroundColor=none;fillColor=#F2CC8F;strokeColor=#E07A5F;fontColor=#393C56;" parent="WIyWlLk6GJQsqaUBKTNV-1" vertex="1">
          <mxGeometry x="950" y="-542" width="160" height="114" as="geometry">
            <mxRectangle x="980" y="-470" width="100" height="30" as="alternateBounds" />
          </mxGeometry>
        </mxCell>
        <mxCell id="BodTTib29oXBfHVtGbxE-254" value="- name : string" style="text;strokeColor=none;fillColor=none;spacingLeft=4;spacingRight=4;overflow=hidden;rotatable=0;points=[[0,0.5],[1,0.5]];portConstraint=eastwest;fontSize=12;whiteSpace=wrap;html=1;labelBackgroundColor=none;fontColor=#393C56;" parent="BodTTib29oXBfHVtGbxE-253" vertex="1">
          <mxGeometry y="30" width="160" height="34" as="geometry" />
        </mxCell>
        <mxCell id="BodTTib29oXBfHVtGbxE-263" value="" style="line;strokeWidth=1;rotatable=0;dashed=0;labelPosition=right;align=left;verticalAlign=middle;spacingTop=0;spacingLeft=6;points=[];portConstraint=eastwest;labelBackgroundColor=none;fillColor=#F2CC8F;strokeColor=#E07A5F;fontColor=#393C56;" parent="BodTTib29oXBfHVtGbxE-253" vertex="1">
          <mxGeometry y="64" width="160" height="10" as="geometry" />
        </mxCell>
        <mxCell id="BodTTib29oXBfHVtGbxE-264" value="&amp;nbsp;+ posts()" style="text;whiteSpace=wrap;html=1;labelBackgroundColor=none;fontColor=#393C56;" parent="BodTTib29oXBfHVtGbxE-253" vertex="1">
          <mxGeometry y="74" width="160" height="40" as="geometry" />
        </mxCell>
        <mxCell id="BodTTib29oXBfHVtGbxE-265" value="" style="edgeStyle=entityRelationEdgeStyle;fontSize=12;html=1;endArrow=ERoneToMany;rounded=0;endFill=0;startArrow=none;startFill=0;labelBackgroundColor=none;strokeColor=#E07A5F;fontColor=default;" parent="WIyWlLk6GJQsqaUBKTNV-1" source="BodTTib29oXBfHVtGbxE-263" target="BodTTib29oXBfHVtGbxE-243" edge="1">
          <mxGeometry width="100" height="100" relative="1" as="geometry">
            <mxPoint x="520" y="120" as="sourcePoint" />
            <mxPoint x="600" y="180" as="targetPoint" />
          </mxGeometry>
        </mxCell>
        <mxCell id="BodTTib29oXBfHVtGbxE-266" value="PaperType" style="swimlane;fontStyle=0;childLayout=stackLayout;horizontal=1;startSize=30;horizontalStack=0;resizeParent=1;resizeParentMax=0;resizeLast=0;collapsible=1;marginBottom=0;align=center;fontSize=14;labelBackgroundColor=none;fillColor=#F2CC8F;strokeColor=#E07A5F;fontColor=#393C56;" parent="WIyWlLk6GJQsqaUBKTNV-1" vertex="1">
          <mxGeometry x="960" y="-340" width="160" height="114" as="geometry">
            <mxRectangle x="980" y="-380" width="100" height="30" as="alternateBounds" />
          </mxGeometry>
        </mxCell>
        <mxCell id="BodTTib29oXBfHVtGbxE-267" value="- name : string" style="text;strokeColor=none;fillColor=none;spacingLeft=4;spacingRight=4;overflow=hidden;rotatable=0;points=[[0,0.5],[1,0.5]];portConstraint=eastwest;fontSize=12;whiteSpace=wrap;html=1;labelBackgroundColor=none;fontColor=#393C56;" parent="BodTTib29oXBfHVtGbxE-266" vertex="1">
          <mxGeometry y="30" width="160" height="34" as="geometry" />
        </mxCell>
        <mxCell id="BodTTib29oXBfHVtGbxE-268" value="" style="line;strokeWidth=1;rotatable=0;dashed=0;labelPosition=right;align=left;verticalAlign=middle;spacingTop=0;spacingLeft=6;points=[];portConstraint=eastwest;labelBackgroundColor=none;fillColor=#F2CC8F;strokeColor=#E07A5F;fontColor=#393C56;" parent="BodTTib29oXBfHVtGbxE-266" vertex="1">
          <mxGeometry y="64" width="160" height="10" as="geometry" />
        </mxCell>
        <mxCell id="BodTTib29oXBfHVtGbxE-269" value="&amp;nbsp;+ posts()" style="text;whiteSpace=wrap;html=1;labelBackgroundColor=none;fontColor=#393C56;" parent="BodTTib29oXBfHVtGbxE-266" vertex="1">
          <mxGeometry y="74" width="160" height="40" as="geometry" />
        </mxCell>
        <mxCell id="BodTTib29oXBfHVtGbxE-271" value="" style="edgeStyle=entityRelationEdgeStyle;fontSize=12;html=1;endArrow=ERoneToMany;rounded=0;endFill=0;startArrow=none;startFill=0;labelBackgroundColor=none;strokeColor=#E07A5F;fontColor=default;" parent="WIyWlLk6GJQsqaUBKTNV-1" source="BodTTib29oXBfHVtGbxE-268" target="BodTTib29oXBfHVtGbxE-244" edge="1">
          <mxGeometry width="100" height="100" relative="1" as="geometry">
            <mxPoint x="620" y="210" as="sourcePoint" />
            <mxPoint x="410" y="-90" as="targetPoint" />
            <Array as="points">
              <mxPoint x="360" y="30" />
              <mxPoint x="390" y="-5" />
            </Array>
          </mxGeometry>
        </mxCell>
        <mxCell id="BodTTib29oXBfHVtGbxE-284" value="Like" style="swimlane;fontStyle=0;childLayout=stackLayout;horizontal=1;startSize=40;horizontalStack=0;resizeParent=1;resizeParentMax=0;resizeLast=0;collapsible=1;marginBottom=0;align=center;fontSize=14;labelBackgroundColor=none;fillColor=#F2CC8F;strokeColor=#E07A5F;fontColor=#393C56;" parent="WIyWlLk6GJQsqaUBKTNV-1" vertex="1">
          <mxGeometry x="390" y="-180" width="170" height="174" as="geometry">
            <mxRectangle x="670" y="-100" width="70" height="30" as="alternateBounds" />
          </mxGeometry>
        </mxCell>
        <mxCell id="BodTTib29oXBfHVtGbxE-286" value="&lt;span style=&quot;text-wrap-mode: nowrap;&quot;&gt;- user_id : integer&lt;/span&gt;&lt;div style=&quot;text-wrap-mode: nowrap;&quot;&gt;- post_id : integer&lt;/div&gt;&lt;div style=&quot;text-wrap-mode: nowrap;&quot;&gt;- content : text&lt;/div&gt;&lt;div style=&quot;text-wrap-mode: nowrap;&quot;&gt;- likeable_type : string&lt;/div&gt;&lt;div style=&quot;text-wrap-mode: nowrap;&quot;&gt;- likeable_id : integer&lt;/div&gt;" style="text;strokeColor=none;fillColor=none;spacingLeft=4;spacingRight=4;overflow=hidden;rotatable=0;points=[[0,0.5],[1,0.5]];portConstraint=eastwest;fontSize=12;whiteSpace=wrap;html=1;labelBackgroundColor=none;fontColor=#393C56;" parent="BodTTib29oXBfHVtGbxE-284" vertex="1">
          <mxGeometry y="40" width="170" height="84" as="geometry" />
        </mxCell>
        <mxCell id="BodTTib29oXBfHVtGbxE-290" value="" style="line;strokeWidth=1;rotatable=0;dashed=0;labelPosition=right;align=left;verticalAlign=middle;spacingTop=0;spacingLeft=6;points=[];portConstraint=eastwest;labelBackgroundColor=none;fillColor=#F2CC8F;strokeColor=#E07A5F;fontColor=#393C56;" parent="BodTTib29oXBfHVtGbxE-284" vertex="1">
          <mxGeometry y="124" width="170" height="10" as="geometry" />
        </mxCell>
        <mxCell id="BodTTib29oXBfHVtGbxE-289" value="&lt;span style=&quot;text-wrap-mode: nowrap;&quot;&gt;+ user()&lt;/span&gt;&lt;div&gt;&lt;span style=&quot;text-wrap-mode: nowrap;&quot;&gt;+ likeable()&lt;/span&gt;&lt;/div&gt;" style="text;strokeColor=none;fillColor=none;spacingLeft=4;spacingRight=4;overflow=hidden;rotatable=0;points=[[0,0.5],[1,0.5]];portConstraint=eastwest;fontSize=12;whiteSpace=wrap;html=1;labelBackgroundColor=none;fontColor=#393C56;" parent="BodTTib29oXBfHVtGbxE-284" vertex="1">
          <mxGeometry y="134" width="170" height="40" as="geometry" />
        </mxCell>
        <mxCell id="BodTTib29oXBfHVtGbxE-291" value="" style="edgeStyle=entityRelationEdgeStyle;fontSize=12;html=1;endArrow=none;rounded=0;endFill=0;startArrow=ERoneToMany;startFill=0;labelBackgroundColor=none;strokeColor=#E07A5F;fontColor=default;" parent="WIyWlLk6GJQsqaUBKTNV-1" source="BodTTib29oXBfHVtGbxE-289" target="BodTTib29oXBfHVtGbxE-274" edge="1">
          <mxGeometry width="100" height="100" relative="1" as="geometry">
            <mxPoint x="640" y="20" as="sourcePoint" />
            <mxPoint x="580" y="20" as="targetPoint" />
          </mxGeometry>
        </mxCell>
        <mxCell id="BodTTib29oXBfHVtGbxE-293" value="" style="edgeStyle=entityRelationEdgeStyle;fontSize=12;html=1;endArrow=ERoneToMany;rounded=0;endFill=0;labelBackgroundColor=none;strokeColor=#E07A5F;fontColor=default;" parent="WIyWlLk6GJQsqaUBKTNV-1" source="BodTTib29oXBfHVtGbxE-295" target="BodTTib29oXBfHVtGbxE-289" edge="1">
          <mxGeometry width="100" height="100" relative="1" as="geometry">
            <mxPoint x="385" y="-220" as="sourcePoint" />
            <mxPoint x="230" y="-80" as="targetPoint" />
            <Array as="points">
              <mxPoint x="390" y="-320" />
              <mxPoint x="270" y="-23" />
            </Array>
          </mxGeometry>
        </mxCell>
        <mxCell id="BodTTib29oXBfHVtGbxE-296" value="Faculty" style="swimlane;fontStyle=0;childLayout=stackLayout;horizontal=1;startSize=30;horizontalStack=0;resizeParent=1;resizeParentMax=0;resizeLast=0;collapsible=1;marginBottom=0;align=center;fontSize=14;labelBackgroundColor=none;fillColor=#F2CC8F;strokeColor=#E07A5F;fontColor=#393C56;" parent="WIyWlLk6GJQsqaUBKTNV-1" vertex="1">
          <mxGeometry x="-50" y="-460" width="160" height="126" as="geometry">
            <mxRectangle x="40" y="-370" width="100" height="30" as="alternateBounds" />
          </mxGeometry>
        </mxCell>
        <mxCell id="BodTTib29oXBfHVtGbxE-297" value="- name : string" style="text;strokeColor=none;fillColor=none;spacingLeft=4;spacingRight=4;overflow=hidden;rotatable=0;points=[[0,0.5],[1,0.5]];portConstraint=eastwest;fontSize=12;whiteSpace=wrap;html=1;labelBackgroundColor=none;fontColor=#393C56;" parent="BodTTib29oXBfHVtGbxE-296" vertex="1">
          <mxGeometry y="30" width="160" height="34" as="geometry" />
        </mxCell>
        <mxCell id="BodTTib29oXBfHVtGbxE-298" value="" style="line;strokeWidth=1;rotatable=0;dashed=0;labelPosition=right;align=left;verticalAlign=middle;spacingTop=0;spacingLeft=6;points=[];portConstraint=eastwest;labelBackgroundColor=none;fillColor=#F2CC8F;strokeColor=#E07A5F;fontColor=#393C56;" parent="BodTTib29oXBfHVtGbxE-296" vertex="1">
          <mxGeometry y="64" width="160" height="10" as="geometry" />
        </mxCell>
        <mxCell id="BodTTib29oXBfHVtGbxE-299" value="&amp;nbsp;+ user()" style="text;whiteSpace=wrap;html=1;labelBackgroundColor=none;fontColor=#393C56;" parent="BodTTib29oXBfHVtGbxE-296" vertex="1">
          <mxGeometry y="74" width="160" height="26" as="geometry" />
        </mxCell>
        <mxCell id="BodTTib29oXBfHVtGbxE-300" value="&amp;nbsp;+ universities()" style="text;whiteSpace=wrap;html=1;labelBackgroundColor=none;fontColor=#393C56;" parent="BodTTib29oXBfHVtGbxE-296" vertex="1">
          <mxGeometry y="100" width="160" height="26" as="geometry" />
        </mxCell>
        <mxCell id="BodTTib29oXBfHVtGbxE-306" value="University" style="swimlane;fontStyle=0;childLayout=stackLayout;horizontal=1;startSize=30;horizontalStack=0;resizeParent=1;resizeParentMax=0;resizeLast=0;collapsible=1;marginBottom=0;align=center;fontSize=14;labelBackgroundColor=none;fillColor=#F2CC8F;strokeColor=#E07A5F;fontColor=#393C56;" parent="WIyWlLk6GJQsqaUBKTNV-1" vertex="1">
          <mxGeometry x="-50" y="-300" width="160" height="100" as="geometry">
            <mxRectangle x="40" y="-300" width="100" height="30" as="alternateBounds" />
          </mxGeometry>
        </mxCell>
        <mxCell id="BodTTib29oXBfHVtGbxE-307" value="- name : string" style="text;strokeColor=none;fillColor=none;spacingLeft=4;spacingRight=4;overflow=hidden;rotatable=0;points=[[0,0.5],[1,0.5]];portConstraint=eastwest;fontSize=12;whiteSpace=wrap;html=1;labelBackgroundColor=none;fontColor=#393C56;" parent="BodTTib29oXBfHVtGbxE-306" vertex="1">
          <mxGeometry y="30" width="160" height="34" as="geometry" />
        </mxCell>
        <mxCell id="BodTTib29oXBfHVtGbxE-308" value="" style="line;strokeWidth=1;rotatable=0;dashed=0;labelPosition=right;align=left;verticalAlign=middle;spacingTop=0;spacingLeft=6;points=[];portConstraint=eastwest;labelBackgroundColor=none;fillColor=#F2CC8F;strokeColor=#E07A5F;fontColor=#393C56;" parent="BodTTib29oXBfHVtGbxE-306" vertex="1">
          <mxGeometry y="64" width="160" height="10" as="geometry" />
        </mxCell>
        <mxCell id="BodTTib29oXBfHVtGbxE-310" value="&amp;nbsp;+ faculties()" style="text;whiteSpace=wrap;html=1;labelBackgroundColor=none;fontColor=#393C56;" parent="BodTTib29oXBfHVtGbxE-306" vertex="1">
          <mxGeometry y="74" width="160" height="26" as="geometry" />
        </mxCell>
        <mxCell id="BodTTib29oXBfHVtGbxE-313" value="" style="edgeStyle=entityRelationEdgeStyle;fontSize=12;html=1;endArrow=ERoneToMany;rounded=0;labelBackgroundColor=none;strokeColor=#E07A5F;fontColor=default;" parent="WIyWlLk6GJQsqaUBKTNV-1" source="BodTTib29oXBfHVtGbxE-310" target="BodTTib29oXBfHVtGbxE-300" edge="1">
          <mxGeometry width="100" height="100" relative="1" as="geometry">
            <mxPoint x="230" y="-320" as="sourcePoint" />
            <mxPoint x="330" y="-420" as="targetPoint" />
          </mxGeometry>
        </mxCell>
        <mxCell id="BodTTib29oXBfHVtGbxE-314" value="" style="edgeStyle=entityRelationEdgeStyle;fontSize=12;html=1;endArrow=ERoneToMany;rounded=0;endFill=0;labelBackgroundColor=none;strokeColor=#E07A5F;fontColor=default;" parent="WIyWlLk6GJQsqaUBKTNV-1" source="BodTTib29oXBfHVtGbxE-299" target="BodTTib29oXBfHVtGbxE-3" edge="1">
          <mxGeometry width="100" height="100" relative="1" as="geometry">
            <mxPoint x="200" y="-380" as="sourcePoint" />
            <mxPoint x="300" y="-480" as="targetPoint" />
          </mxGeometry>
        </mxCell>
        <mxCell id="eQ5qyDtmDILFviuWHuSh-39" value="" style="edgeStyle=orthogonalEdgeStyle;rounded=0;orthogonalLoop=1;jettySize=auto;html=1;labelBackgroundColor=none;strokeColor=#E07A5F;fontColor=default;" edge="1" parent="WIyWlLk6GJQsqaUBKTNV-1" source="BodTTib29oXBfHVtGbxE-315" target="BodTTib29oXBfHVtGbxE-247">
          <mxGeometry relative="1" as="geometry" />
        </mxCell>
        <mxCell id="BodTTib29oXBfHVtGbxE-315" value="Report" style="swimlane;fontStyle=0;childLayout=stackLayout;horizontal=1;startSize=30;horizontalStack=0;resizeParent=1;resizeParentMax=0;resizeLast=0;collapsible=1;marginBottom=0;align=center;fontSize=14;labelBackgroundColor=none;fillColor=#F2CC8F;strokeColor=#E07A5F;fontColor=#393C56;" parent="WIyWlLk6GJQsqaUBKTNV-1" vertex="1">
          <mxGeometry x="413.5" y="-460" width="130" height="160" as="geometry">
            <mxRectangle x="260" y="-584" width="100" height="30" as="alternateBounds" />
          </mxGeometry>
        </mxCell>
        <mxCell id="BodTTib29oXBfHVtGbxE-316" value="- reason : text&lt;div&gt;- status : enum&lt;/div&gt;&lt;div&gt;- handle_at : datetime&lt;/div&gt;" style="text;strokeColor=none;fillColor=none;spacingLeft=4;spacingRight=4;overflow=hidden;rotatable=0;points=[[0,0.5],[1,0.5]];portConstraint=eastwest;fontSize=12;whiteSpace=wrap;html=1;labelBackgroundColor=none;fontColor=#393C56;" parent="BodTTib29oXBfHVtGbxE-315" vertex="1">
          <mxGeometry y="30" width="130" height="60" as="geometry" />
        </mxCell>
        <mxCell id="BodTTib29oXBfHVtGbxE-317" value="" style="line;strokeWidth=1;rotatable=0;dashed=0;labelPosition=right;align=left;verticalAlign=middle;spacingTop=0;spacingLeft=6;points=[];portConstraint=eastwest;labelBackgroundColor=none;fillColor=#F2CC8F;strokeColor=#E07A5F;fontColor=#393C56;" parent="BodTTib29oXBfHVtGbxE-315" vertex="1">
          <mxGeometry y="90" width="130" height="10" as="geometry" />
        </mxCell>
        <mxCell id="eQ5qyDtmDILFviuWHuSh-24" value="&amp;nbsp;+ user()" style="text;whiteSpace=wrap;html=1;labelBackgroundColor=none;fontColor=#393C56;" vertex="1" parent="BodTTib29oXBfHVtGbxE-315">
          <mxGeometry y="100" width="130" height="30" as="geometry" />
        </mxCell>
        <mxCell id="BodTTib29oXBfHVtGbxE-318" value="&amp;nbsp;+ post()" style="text;whiteSpace=wrap;html=1;labelBackgroundColor=none;fontColor=#393C56;" parent="BodTTib29oXBfHVtGbxE-315" vertex="1">
          <mxGeometry y="130" width="130" height="30" as="geometry" />
        </mxCell>
        <mxCell id="eQ5qyDtmDILFviuWHuSh-25" value="" style="edgeStyle=entityRelationEdgeStyle;fontSize=12;html=1;endArrow=none;rounded=0;startArrow=ERoneToMany;startFill=0;endFill=0;labelBackgroundColor=none;strokeColor=#E07A5F;fontColor=default;" edge="1" parent="WIyWlLk6GJQsqaUBKTNV-1" source="BodTTib29oXBfHVtGbxE-19" target="eQ5qyDtmDILFviuWHuSh-24">
          <mxGeometry width="100" height="100" relative="1" as="geometry">
            <mxPoint x="360" y="-390" as="sourcePoint" />
            <mxPoint x="460" y="-490" as="targetPoint" />
          </mxGeometry>
        </mxCell>
        <mxCell id="eQ5qyDtmDILFviuWHuSh-26" value="" style="edgeStyle=entityRelationEdgeStyle;fontSize=12;html=1;endArrow=none;rounded=0;startArrow=ERoneToMany;startFill=0;endFill=0;labelBackgroundColor=none;strokeColor=#E07A5F;fontColor=default;" edge="1" parent="WIyWlLk6GJQsqaUBKTNV-1" source="BodTTib29oXBfHVtGbxE-250" target="BodTTib29oXBfHVtGbxE-318">
          <mxGeometry width="100" height="100" relative="1" as="geometry">
            <mxPoint x="390" y="-390" as="sourcePoint" />
            <mxPoint x="490" y="-490" as="targetPoint" />
          </mxGeometry>
        </mxCell>
        <mxCell id="eQ5qyDtmDILFviuWHuSh-27" value="File" style="swimlane;fontStyle=0;childLayout=stackLayout;horizontal=1;startSize=26;horizontalStack=0;resizeParent=1;resizeParentMax=0;resizeLast=0;collapsible=1;marginBottom=0;align=center;fontSize=14;labelBackgroundColor=none;fillColor=#F2CC8F;strokeColor=#E07A5F;fontColor=#393C56;" vertex="1" parent="WIyWlLk6GJQsqaUBKTNV-1">
          <mxGeometry x="830" y="-140" width="160" height="156" as="geometry" />
        </mxCell>
        <mxCell id="eQ5qyDtmDILFviuWHuSh-28" value="- file_name : string" style="text;strokeColor=none;fillColor=none;spacingLeft=4;spacingRight=4;overflow=hidden;rotatable=0;points=[[0,0.5],[1,0.5]];portConstraint=eastwest;fontSize=12;whiteSpace=wrap;html=1;labelBackgroundColor=none;fontColor=#393C56;" vertex="1" parent="eQ5qyDtmDILFviuWHuSh-27">
          <mxGeometry y="26" width="160" height="30" as="geometry" />
        </mxCell>
        <mxCell id="eQ5qyDtmDILFviuWHuSh-29" value="- file_path : string" style="text;strokeColor=none;fillColor=none;spacingLeft=4;spacingRight=4;overflow=hidden;rotatable=0;points=[[0,0.5],[1,0.5]];portConstraint=eastwest;fontSize=12;whiteSpace=wrap;html=1;labelBackgroundColor=none;fontColor=#393C56;" vertex="1" parent="eQ5qyDtmDILFviuWHuSh-27">
          <mxGeometry y="56" width="160" height="30" as="geometry" />
        </mxCell>
        <mxCell id="eQ5qyDtmDILFviuWHuSh-30" value="- file_size : integer" style="text;strokeColor=none;fillColor=none;spacingLeft=4;spacingRight=4;overflow=hidden;rotatable=0;points=[[0,0.5],[1,0.5]];portConstraint=eastwest;fontSize=12;whiteSpace=wrap;html=1;labelBackgroundColor=none;fontColor=#393C56;" vertex="1" parent="eQ5qyDtmDILFviuWHuSh-27">
          <mxGeometry y="86" width="160" height="30" as="geometry" />
        </mxCell>
        <mxCell id="eQ5qyDtmDILFviuWHuSh-31" value="" style="line;strokeWidth=1;rotatable=0;dashed=0;labelPosition=right;align=left;verticalAlign=middle;spacingTop=0;spacingLeft=6;points=[];portConstraint=eastwest;labelBackgroundColor=none;fillColor=#F2CC8F;strokeColor=#E07A5F;fontColor=#393C56;" vertex="1" parent="eQ5qyDtmDILFviuWHuSh-27">
          <mxGeometry y="116" width="160" height="10" as="geometry" />
        </mxCell>
        <mxCell id="eQ5qyDtmDILFviuWHuSh-32" value="+ post()" style="text;strokeColor=none;fillColor=none;spacingLeft=4;spacingRight=4;overflow=hidden;rotatable=0;points=[[0,0.5],[1,0.5]];portConstraint=eastwest;fontSize=12;whiteSpace=wrap;html=1;labelBackgroundColor=none;fontColor=#393C56;" vertex="1" parent="eQ5qyDtmDILFviuWHuSh-27">
          <mxGeometry y="126" width="160" height="30" as="geometry" />
        </mxCell>
        <mxCell id="eQ5qyDtmDILFviuWHuSh-33" style="edgeStyle=orthogonalEdgeStyle;rounded=0;orthogonalLoop=1;jettySize=auto;html=1;endArrow=none;endFill=0;labelBackgroundColor=none;strokeColor=#E07A5F;fontColor=default;" edge="1" parent="WIyWlLk6GJQsqaUBKTNV-1" source="eQ5qyDtmDILFviuWHuSh-32" target="BodTTib29oXBfHVtGbxE-249">
          <mxGeometry relative="1" as="geometry" />
        </mxCell>
        <mxCell id="eQ5qyDtmDILFviuWHuSh-36" style="edgeStyle=orthogonalEdgeStyle;rounded=0;orthogonalLoop=1;jettySize=auto;html=1;endArrow=none;endFill=0;startArrow=ERoneToMany;startFill=0;labelBackgroundColor=none;strokeColor=#E07A5F;fontColor=default;" edge="1" parent="WIyWlLk6GJQsqaUBKTNV-1" source="BodTTib29oXBfHVtGbxE-4" target="BodTTib29oXBfHVtGbxE-241">
          <mxGeometry relative="1" as="geometry" />
        </mxCell>
      </root>
    </mxGraphModel>
  </diagram>
</mxfile>
